{
  "accessors": [
    {
      "bufferView": 2,
      "componentType": 5126,
      "count": 37390,
      "max": [
        5.0055975914001465,
        5.576054573059082,
        0.4154217541217804
      ],
      "min": [
        -4.984510898590088,
        -5.576054573059082,
        0.038673363626003265
      ],
      "type": "VEC3"
    },
    {
      "bufferView": 2,
      "byteOffset": 448680,
      "componentType": 5126,
      "count": 37390,
      "max": [
        1.0,
        1.0,
        1.0
      ],
      "min": [
        -1.0,
        -1.0,
        -1.0
      ],
      "type": "VEC3"
    },
    {
      "bufferView": 1,
      "componentType": 5126,
      "count": 37390,
      "max": [
        1.0411587953567505,
        1.0000003576278687
      ],
      "min": [
        0.0,
        0.010013577528297901
      ],
      "type": "VEC2"
    },
    {
      "bufferView": 0,
      "componentType": 5125,
      "count": 58944,
      "type": "SCALAR"
    },
    {
      "bufferView": 2,
      "byteOffset": 897360,
      "componentType": 5126,
      "count": 910,
      "max": [
        0.9933515787124634,
        0.9933514595031738,
        0.41138842701911926
      ],
      "min": [
        -0.9933515787124634,
        -0.9933515787124634,
        0.038673363626003265
      ],
      "type": "VEC3"
    },
    {
      "bufferView": 2,
      "byteOffset": 908280,
      "componentType": 5126,
      "count": 910,
      "max": [
        1.0,
        1.0,
        1.0
      ],
      "min": [
        -1.0,
        -1.0,
        -1.0
      ],
      "type": "VEC3"
    },
    {
      "bufferView": 1,
      "byteOffset": 299120,
      "componentType": 5126,
      "count": 910,
      "max": [
        1.0000001192092896,
        1.0000003576278687
      ],
      "min": [
        0.0,
        0.010013577528297901
      ],
      "type": "VEC2"
    },
    {
      "bufferView": 0,
      "byteOffset": 235776,
      "componentType": 5125,
      "count": 4224,
      "type": "SCALAR"
    }
  ],
  "asset": {
    "extras": {
      "author": "xenadus (https://sketchfab.com/xenadus)",
      "license": "CC-BY-NC-4.0 (http://creativecommons.org/licenses/by-nc/4.0/)",
      "source": "https://sketchfab.com/3d-models/react-logo-circle-540ff21ac0f54a038df6f634c7cce726",
      "title": "React logo circle"
    },
    "generator": "Sketchfab-15.8.0",
    "version": "2.0"
  },
  "bufferViews": [
    {
      "buffer": 0,
      "byteLength": 252672,
      "name": "floatBufferViews",
      "target": 34963
    },
    {
      "buffer": 0,
      "byteLength": 306400,
      "byteOffset": 252672,
      "byteStride": 8,
      "name": "floatBufferViews",
      "target": 34962
    },
    {
      "buffer": 0,
      "byteLength": 919200,
      "byteOffset": 559072,
      "byteStride": 12,
      "name": "floatBufferViews",
      "target": 34962
    }
  ],
  "buffers": [
    {
      "byteLength": 1478272,
      "uri": "scene.bin"
    }
  ],
  "materials": [
    {
      "doubleSided": true,
      "emissiveFactor": [
        0.023907400000000002,
        0.1402202,
        0.19293720000000003
      ],
      "name": "Material.002",
      "pbrMetallicRoughness": {
        "baseColorFactor": [
          0.119537,
          0.701101,
          0.964686,
          1.0
        ],
        "metallicFactor": 0.0,
        "roughnessFactor": 0.86662048367891
      }
    },
    {
      "doubleSided": true,
      "name": "Material.001",
      "pbrMetallicRoughness": {
        "baseColorFactor": [
          0.0290993,
          0.0290993,
          0.0290994,
          1.0
        ],
        "metallicFactor": 0.0,
        "roughnessFactor": 0.9925961359107832
      }
    }
  ],
  "meshes": [
    {
      "name": "React-Logo_Material.002_0",
      "primitives": [
        {
          "attributes": {
            "NORMAL": 1,
            "POSITION": 0,
            "TEXCOORD_0": 2
          },
          "indices": 3,
          "material": 0,
          "mode": 4
        }
      ]
    },
    {
      "name": "Backdrop_Material.001_0",
      "primitives": [
        {
          "attributes": {
            "NORMAL": 5,
            "POSITION": 4,
            "TEXCOORD_0": 6
          },
          "indices": 7,
          "material": 1,
          "mode": 4
        }
      ]
    }
  ],
  "nodes": [
    {
      "children": [
        1
      ],
      "matrix": [
        -2.220446049250313e-16,
        -2.220446049250313e-16,
        1.0,
        0.0,
        1.0,
        -4.930380657631324e-32,
        2.220446049250313e-16,
        0.0,
        0.0,
        1.0,
        2.220446049250313e-16,
        0.0,
        0.0,
        0.0,
        0.0,
        1.0
      ],
      "name": "Sketchfab_model"
    },
    {
      "children": [
        2
      ],
      "matrix": [
        0.009999999776482582,
        0.0,
        0.0,
        0.0,
        0.0,
        0.0,
        0.009999999776482582,
        0.0,
        0.0,
        -0.009999999776482582,
        0.0,
        0.0,
        0.0,
        0.0,
        0.0,
        1.0
      ],
      "name": "react-logo-circle.fbx"
    },
    {
      "children": [
        3,
        5
      ],
      "name": "RootNode"
    },
    {
      "children": [
        4
      ],
      "matrix": [
        -1.711996642116335e-06,
        -39.16591644287099,
        2.334470258589388e-06,
        0.0,
        -6.3809378289318055e-06,
        -2.334469980298814e-06,
        -39.165916442870504,
        0.0,
        52.73355865478441,
        -2.305057652342795e-06,
        -8.591387214495791e-06,
        0.0,
        0.0,
        7.935468673706055,
        0.0,
        1.0
      ],
      "name": "React-Logo"
    },
    {
      "mesh": 0,
      "name": "React-Logo_Material.002_0"
    },
    {
      "children": [
        6
      ],
      "matrix": [
        1.871245785405856e-05,
        -247.85401916503827,
        -7.386625370483845e-06,
        0.0,
        -1.0834044233257942e-05,
        7.386624531205466e-06,
        -247.85401916503872,
        0.0,
        52.73355865478496,
        3.9812729899841045e-06,
        -2.305057151774401e-06,
        0.0,
        -17.09052848815918,
        7.935468673706055,
        0.0,
        1.0
      ],
      "name": "Backdrop"
    },
    {
      "mesh": 1,
      "name": "Backdrop_Material.001_0"
    }
  ],
  "scene": 0,
  "scenes": [
    {
      "name": "Sketchfab_Scene",
      "nodes": [
        0
      ]
    }
  ]
}
